<svg xmlns="http://www.w3.org/2000/svg" width="345" height="140" viewBox="0 0 345 140"><rect width="100%" height="100%" fill="#DDDDDD"/><path fill="#999999" d="m73.235 63.17-2.99-.53q.34-2.39 1.33-4.2.99-1.8 2.47-3.01 1.49-1.21 3.41-1.82 1.92-.61 4.12-.61 2.3 0 4.16.66 1.85.66 3.16 1.82 1.31 1.16 2.01 2.72.7 1.57.7 3.38 0 1.59-.35 2.8-.36 1.21-1.03 2.1-.66.9-1.65 1.52-.99.62-2.23 1.04 2.99.94 4.46 2.87 1.47 1.93 1.47 4.85 0 2.49-.92 4.4-.92 1.91-2.48 3.2-1.57 1.3-3.63 1.97-2.06.67-4.36.67-2.5 0-4.37-.58-1.86-.57-3.24-1.7-1.38-1.13-2.34-2.76-.97-1.63-1.66-3.77l2.51-1.04q.99-.41 1.85-.21.86.19 1.25.93.42.8.91 1.58.49.79 1.18 1.4.69.61 1.63.98.93.38 2.22.38 1.44 0 2.53-.47 1.08-.47 1.8-1.23.73-.76 1.08-1.69.36-.93.36-1.87 0-1.2-.25-2.18-.26-.97-1.06-1.66-.81-.69-2.31-1.09-1.51-.39-4.04-.39v-4.04q2.09-.03 3.47-.39 1.38-.37 2.2-1.03.82-.65 1.14-1.57.32-.92.32-2.03 0-2.34-1.31-3.56-1.31-1.22-3.5-1.22-1.01 0-1.86.29-.85.28-1.53.8t-1.14 1.21q-.46.69-.69 1.52-.39 1.05-1.02 1.4-.63.34-1.78.16Zm27.46 10.92h10.12V63.22q0-1.54.2-3.41l-10.32 14.28Zm15.06 0h4.19v3.29q0 .46-.3.8-.3.33-.85.33h-3.04v8.12h-4.94v-8.12h-14.03q-.58 0-1.01-.36-.44-.35-.56-.88l-.59-2.88 15.75-21.04h5.38v20.74Zm15.87-15.57-1.17 6.93q1.1-.23 2.12-.34 1.01-.1 1.95-.1 2.62 0 4.62.78t3.36 2.16q1.36 1.38 2.05 3.24.69 1.85.69 3.99 0 2.64-.93 4.83-.93 2.18-2.59 3.73-1.66 1.56-3.92 2.41-2.27.85-4.94.85-1.56 0-2.96-.32-1.41-.33-2.64-.87-1.23-.54-2.27-1.24-1.05-.7-1.88-1.48l1.75-2.42q.55-.78 1.45-.78.57 0 1.17.37t1.37.8q.77.44 1.82.81 1.04.37 2.52.37 1.56 0 2.76-.51 1.19-.51 1.99-1.41.79-.91 1.19-2.17.4-1.25.4-2.72 0-2.71-1.57-4.24-1.58-1.53-4.66-1.53-2.37 0-4.85.87l-3.54-1.01 2.76-16.15h16.42v2.42q0 1.22-.76 1.98-.76.75-2.58.75h-9.13Zm51.55 20.5-3.02 2.96-7.79-7.79-7.87 7.84-3.01-2.97 7.86-7.89-7.5-7.49 2.99-2.99 7.5 7.49 7.45-7.45 3.04 2.99-7.47 7.48 7.82 7.82Zm31.48 3.36h5.98v4.25h-18.4v-4.25h6.74V62.99q0-1.15.07-2.37l-4.78 4q-.42.32-.82.4-.4.08-.76.01t-.63-.24q-.28-.17-.42-.38l-1.79-2.46 10.14-8.62h4.67v29.05Zm15.11-8.29h10.12V63.22q0-1.54.21-3.41l-10.33 14.28Zm15.07 0h4.18v3.29q0 .46-.29.8-.3.33-.86.33h-3.03v8.12h-4.95v-8.12h-14.03q-.57 0-1.01-.36-.44-.35-.55-.88l-.6-2.88 15.76-21.04h5.38v20.74Zm30.89-4.09q0 4.35-.93 7.56-.94 3.2-2.58 5.3-1.64 2.09-3.89 3.11-2.24 1.03-4.84 1.03-2.6 0-4.82-1.03-2.22-1.02-3.85-3.11-1.63-2.1-2.55-5.3-.92-3.21-.92-7.56 0-4.37.92-7.57.92-3.19 2.55-5.29 1.63-2.09 3.85-3.11 2.22-1.03 4.82-1.03t4.84 1.03q2.25 1.02 3.89 3.11 1.64 2.1 2.58 5.29.93 3.2.93 7.57Zm-5.87 0q0-3.61-.53-5.98-.53-2.37-1.41-3.77-.89-1.4-2.04-1.97-1.15-.56-2.39-.56-1.22 0-2.36.56-1.13.57-2.01 1.97-.87 1.4-1.39 3.77-.52 2.37-.52 5.98 0 3.61.52 5.98.52 2.37 1.39 3.77.88 1.41 2.01 1.97 1.14.56 2.36.56 1.24 0 2.39-.56 1.15-.56 2.04-1.97.88-1.4 1.41-3.77.53-2.37.53-5.98Z"/></svg>